<svg width="326" height="343" viewBox="0 0 326 343" fill="none" xmlns="http://www.w3.org/2000/svg">
    <g opacity="0.5">
    <path opacity="0.2" fill-rule="evenodd" clip-rule="evenodd" d="M163.164 127.768L160.98 129.128L123.804 152.273L121.833 153.501V155.833V204.963V208.435L125.222 209.077L162.255 216.076L163.018 216.22L163.781 216.076L201.101 209.078L204.494 208.441V204.963V155.833V153.501L202.524 152.273L165.349 129.128L163.164 127.768Z" fill="url(#paint0_linear_3090_5715)"/>
    <path opacity="0.4" fill-rule="evenodd" clip-rule="evenodd" d="M184.165 119.012C171.201 110.917 154.758 110.917 141.794 119.012L120.335 132.411C108.632 139.719 101.521 152.542 101.521 166.34V192.955C101.521 212.173 115.188 228.675 134.07 232.255L155.341 236.287C160.245 237.217 165.28 237.22 170.185 236.298L191.832 232.226C210.74 228.669 224.437 212.155 224.437 192.915V166.34C224.437 152.542 217.327 139.719 205.624 132.411L184.165 119.012Z" stroke="url(#paint1_linear_3090_5715)" stroke-width="5.33333"/>
    <path opacity="0.3" fill-rule="evenodd" clip-rule="evenodd" d="M215.152 98.6077C183.231 78.6573 142.728 78.6572 110.808 98.6074L109.198 99.6137C81.4178 116.976 64.5417 147.425 64.5417 180.184V180.184C64.5417 225.828 96.9981 265.023 141.842 273.532L144.403 274.018C156.448 276.303 168.815 276.312 180.864 274.044L184.042 273.446C228.914 264.998 261.417 225.804 261.417 180.144V180.144C261.417 147.41 244.553 116.984 216.795 99.6348L215.152 98.6077Z" stroke="url(#paint2_linear_3090_5715)" stroke-width="5.33333"/>
    <path opacity="0.1" fill-rule="evenodd" clip-rule="evenodd" d="M247.44 53.3481C195.764 21.0548 130.197 21.0546 78.5203 53.3476L75.8993 54.9855C30.9259 83.0897 3.60416 132.381 3.60416 185.414V185.414C3.60416 259.3 56.1447 322.746 128.737 336.519L132.908 337.31C152.407 341.01 172.427 341.024 191.931 337.353L197.1 336.38C269.738 322.706 322.354 259.262 322.354 185.348V185.348C322.354 132.356 295.054 83.1027 250.115 55.0197L247.44 53.3481Z" stroke="url(#paint3_linear_3090_5715)" stroke-width="5.33333"/>
    <path fill-rule="evenodd" clip-rule="evenodd" d="M163.164 192.628L125.989 204.962L163.02 211.966L200.341 204.962L163.164 192.628Z" stroke="#0D1623" stroke-width="5.33333" stroke-linejoin="round"/>
    <path fill-rule="evenodd" clip-rule="evenodd" d="M163.164 132.686L200.341 155.833L163.171 170.332L163.164 132.686Z" stroke="#0D1623" stroke-width="5.33333" stroke-linejoin="round"/>
    <path fill-rule="evenodd" clip-rule="evenodd" d="M163.164 132.686L163.171 170.332L125.989 155.833L163.164 132.686Z" stroke="#0D1623" stroke-width="5.33333" stroke-linejoin="round"/>
    <path fill-rule="evenodd" clip-rule="evenodd" d="M163.172 170.332L163.165 170.33V192.628L200.342 204.963V155.833L163.172 170.332Z" stroke="#0D1623" stroke-width="5.33333" stroke-linejoin="round"/>
    <path fill-rule="evenodd" clip-rule="evenodd" d="M125.989 155.834V204.962L163.164 192.627V170.33L125.989 155.834Z" stroke="#0D1623" stroke-width="5.33333" stroke-linejoin="round"/>
    </g>
    <defs>
    <linearGradient id="paint0_linear_3090_5715" x1="258.898" y1="-139.464" x2="-147.891" y2="35.8445" gradientUnits="userSpaceOnUse">
    <stop stop-color="#E63C62"/>
    <stop offset="0.538746" stop-color="#859ACD"/>
    <stop offset="1" stop-color="#6EB0E6"/>
    </linearGradient>
    <linearGradient id="paint1_linear_3090_5715" x1="243.811" y1="-76.4202" x2="-89.0922" y2="74.25" gradientUnits="userSpaceOnUse">
    <stop stop-color="#E63C62"/>
    <stop offset="0.538746" stop-color="#859ACD"/>
    <stop offset="1" stop-color="#6EB0E6"/>
    </linearGradient>
    <linearGradient id="paint2_linear_3090_5715" x1="292.448" y1="-226.103" x2="-240.93" y2="15.0775" gradientUnits="userSpaceOnUse">
    <stop stop-color="#E63C62"/>
    <stop offset="0.538746" stop-color="#859ACD"/>
    <stop offset="1" stop-color="#6EB0E6"/>
    </linearGradient>
    <linearGradient id="paint3_linear_3090_5715" x1="372.595" y1="-463.83" x2="-485.567" y2="-68.6605" gradientUnits="userSpaceOnUse">
    <stop stop-color="#E63C62"/>
    <stop offset="0.538746" stop-color="#859ACD"/>
    <stop offset="1" stop-color="#6EB0E6"/>
    </linearGradient>
    </defs>
    </svg>
    