<svg width="14" height="13" viewBox="0 0 14 13" fill="none" xmlns="http://www.w3.org/2000/svg">
<path fill-rule="evenodd" clip-rule="evenodd" d="M7.0204 2.10096C4.31533 2.10096 2.12244 4.25538 2.12244 6.91299H3.34693C4.36133 6.91299 5.18366 7.72089 5.18366 8.7175V10.522C5.18366 11.5186 4.36133 12.3265 3.34693 12.3265H2.73468C1.72028 12.3265 0.897949 11.5186 0.897949 10.522V6.91299C0.897949 3.59097 3.63906 0.897949 7.0204 0.897949C10.4017 0.897949 13.1428 3.59097 13.1428 6.91299V10.522C13.1428 11.5186 12.3205 12.3265 11.3061 12.3265H10.6939C9.67947 12.3265 8.85713 11.5186 8.85713 10.522V8.7175C8.85713 7.72089 9.67947 6.91299 10.6939 6.91299H11.9184C11.9184 4.25538 9.72547 2.10096 7.0204 2.10096ZM11.9184 8.11599H10.6939C10.3557 8.11599 10.0816 8.3853 10.0816 8.7175V10.522C10.0816 10.8542 10.3557 11.1235 10.6939 11.1235H11.3061C11.6442 11.1235 11.9184 10.8542 11.9184 10.522V8.11599ZM2.12244 8.11599V10.522C2.12244 10.8542 2.39655 11.1235 2.73468 11.1235H3.34693C3.68506 11.1235 3.95917 10.8542 3.95917 10.522V8.7175C3.95917 8.3853 3.68506 8.11599 3.34693 8.11599H2.12244Z" fill="#E63C62"/>
</svg>
